<svg xmlns="http://www.w3.org/2000/svg" width="240" height="120" viewBox="0 0 240 120">
  <g id="work-yanusy" transform="translate(-640 37)">
    <rect id="Rectangle_3" data-name="Rectangle 3" width="240" height="120" transform="translate(640 -37)" fill="#fff"/>
    <g id="レイヤー_1" transform="translate(703 13.018)">
      <g id="Group_29" data-name="Group 29" transform="translate(0 -0.018)">
        <g id="Group_5" data-name="Group 5" transform="translate(34.287 5.236)">
          <g id="Group_4" data-name="Group 4">
            <path id="Path_1" data-name="Path 1" d="M264.694,32.379l-6.951-10.9H256v14.2h1.719V24.642L264.67,35.6h1.744V21.4h-1.719Z" transform="translate(-227.411 -21.375)" fill="#666"/>
            <path id="Path_2" data-name="Path 2" d="M443.423,21.5,439.1,29.016V35.7h1.719V29.531l4.642-8.031Z" transform="translate(-365.541 -21.451)" fill="#666"/>
            <path id="Path_3" data-name="Path 3" d="M422.739,21.5H420.7l3.831,6.631,1.007-1.768Z" transform="translate(-351.66 -21.451)" fill="#666"/>
            <path id="Path_4" data-name="Path 4" d="M158,29.016V35.7h1.719V29.531l4.642-8.031h-2.039Z" transform="translate(-153.481 -21.451)" fill="#666"/>
            <path id="Path_5" data-name="Path 5" d="M139.6,21.5l3.831,6.631,1.007-1.768-2.8-4.863H139.6" transform="translate(-139.6 -21.451)" fill="#666"/>
            <circle id="Ellipse_1" data-name="Ellipse 1" cx="1.007" cy="1.007" r="1.007" transform="translate(17.291 8.547)" fill="#666"/>
            <path id="Path_6" data-name="Path 6" d="M190.989,21.5,184.8,35.7h1.867L192,23.514l5.33,12.182h1.891L193,21.5Z" transform="translate(-173.699 -21.451)" fill="#666"/>
            <path id="Path_7" data-name="Path 7" d="M324.147,31.3a6.252,6.252,0,0,1-.123,1.032,1.93,1.93,0,0,1-.884,1.179,4.768,4.768,0,0,1-2.407.491,4.835,4.835,0,0,1-2.407-.491,2.027,2.027,0,0,1-.884-1.179,6.256,6.256,0,0,1-.123-1.032V21.5H315.6V31.865a3.669,3.669,0,0,0,1.425,2.874h0c.025.025.074.049.1.074a6.241,6.241,0,0,0,3.316.884h.54a6.188,6.188,0,0,0,3.34-.884c.025-.025.074-.049.1-.074h0a3.639,3.639,0,0,0,1.424-2.874V21.5h-1.719v9.8Z" transform="translate(-272.373 -21.451)" fill="#666"/>
            <path id="Path_8" data-name="Path 8" d="M378.675,27.612l-.589-.172c-2.063-.54-2.751-1.154-2.751-2.554,0-1.326,1.007-2.137,2.628-2.137a2.766,2.766,0,0,1,2.775,2.358l.025.074,1.719-.516-.025-.074a4.4,4.4,0,0,0-4.519-3.291,4.686,4.686,0,0,0-3.217,1.105,3.455,3.455,0,0,0-1.105,2.554c0,2.137,1.056,3.242,3.856,4l.54.172c2.53.688,2.947,1.375,2.947,2.7,0,1.474-1.081,2.333-2.972,2.333a3.116,3.116,0,0,1-3.168-2.628l-.025-.074-1.695.614.025.049a4.643,4.643,0,0,0,4.912,3.488,5.166,5.166,0,0,0,3.488-1.105,3.723,3.723,0,0,0,1.228-2.874C382.728,29.454,381.672,28.4,378.675,27.612Z" transform="translate(-315.751 -21.3)" fill="#666"/>
          </g>
        </g>
        <g id="Group_28" data-name="Group 28">
          <g id="Group_12" data-name="Group 12" transform="translate(0 9.362)">
            <g id="Group_6" data-name="Group 6" transform="translate(0 0.025)">
              <path id="Path_9" data-name="Path 9" d="M0,38.618a.407.407,0,0,1,.123-.295A.407.407,0,0,1,.418,38.2a.433.433,0,0,1,.368.221L1.867,40.46l1.081-2.039a.287.287,0,0,1,.147-.147.4.4,0,0,1,.221-.074.51.51,0,0,1,.295.123.407.407,0,0,1,.123.295.463.463,0,0,1-.049.2l-1.4,2.628v2.284a.51.51,0,0,1-.123.295.407.407,0,0,1-.295.123.51.51,0,0,1-.295-.123.407.407,0,0,1-.123-.295V41.442l-1.4-2.628A.578.578,0,0,1,0,38.618Z" transform="translate(0 -38.2)" fill="#007aff"/>
            </g>
            <g id="Group_7" data-name="Group 7" transform="translate(4.937 0.074)">
              <path id="Path_10" data-name="Path 10" d="M20.1,43.877v-.1l1.326-5.059a.58.58,0,0,1,.147-.221.519.519,0,0,1,.246-.1h.565a.415.415,0,0,1,.246.074.33.33,0,0,1,.147.172l1.351,5.207a.51.51,0,0,1-.123.295.407.407,0,0,1-.295.123.315.315,0,0,1-.246-.1.358.358,0,0,1-.147-.221l-.368-1.4h-1.67l-.368,1.4a.58.58,0,0,1-.147.221.436.436,0,0,1-.246.1.51.51,0,0,1-.295-.123A.394.394,0,0,1,20.1,43.877Zm1.375-2.137h1.253l-.614-2.407Z" transform="translate(-20.1 -38.4)" fill="#007aff"/>
            </g>
            <g id="Group_8" data-name="Group 8" transform="translate(10.315 0.025)">
              <path id="Path_11" data-name="Path 11" d="M42,43.726V38.618a.51.51,0,0,1,.123-.295.407.407,0,0,1,.295-.123h.295a.368.368,0,0,1,.368.246l1.965,4.126V38.618a.419.419,0,0,1,.418-.418.51.51,0,0,1,.295.123.407.407,0,0,1,.123.295v5.109a.51.51,0,0,1-.123.295.407.407,0,0,1-.295.123h-.319a.381.381,0,0,1-.368-.221L42.81,39.8v3.93a.51.51,0,0,1-.123.295.407.407,0,0,1-.295.123.51.51,0,0,1-.295-.123A.7.7,0,0,1,42,43.726Z" transform="translate(-42 -38.2)" fill="#007aff"/>
            </g>
            <g id="Group_9" data-name="Group 9" transform="translate(15.645 0.025)">
              <path id="Path_12" data-name="Path 12" d="M63.7,42.326V38.618a.51.51,0,0,1,.123-.295.407.407,0,0,1,.295-.123.51.51,0,0,1,.295.123.407.407,0,0,1,.123.295v3.709a.969.969,0,0,0,.393.86,1.449,1.449,0,0,0,.712.172,1.193,1.193,0,0,0,.811-.27.927.927,0,0,0,.295-.737V38.618a.419.419,0,0,1,.418-.418.51.51,0,0,1,.295.123.407.407,0,0,1,.123.295v3.709a2.119,2.119,0,0,1-.2.884,1.639,1.639,0,0,1-.565.663,2.408,2.408,0,0,1-2.309,0,1.639,1.639,0,0,1-.565-.663A1.516,1.516,0,0,1,63.7,42.326Z" transform="translate(-63.7 -38.2)" fill="#007aff"/>
            </g>
            <g id="Group_10" data-name="Group 10" transform="translate(21.122)">
              <path id="Path_13" data-name="Path 13" d="M86,42.717v-.049a.51.51,0,0,1,.123-.295.331.331,0,0,1,.295-.123.369.369,0,0,1,.27.1.509.509,0,0,1,.147.246.679.679,0,0,0,.319.491,1,1,0,0,0,.614.172,1.17,1.17,0,0,0,.712-.221.7.7,0,0,0,.27-.614.828.828,0,0,0-.123-.418.737.737,0,0,0-.221-.246,3.363,3.363,0,0,0-.344-.2c-.074-.049-.221-.1-.442-.2s-.368-.172-.467-.221-.246-.147-.418-.246a1.261,1.261,0,0,1-.368-.344,2.142,2.142,0,0,1-.221-.418,1.365,1.365,0,0,1-.1-.565,1.3,1.3,0,0,1,.516-1.056,1.885,1.885,0,0,1,1.2-.418h.049a1.788,1.788,0,0,1,1.056.295,1.409,1.409,0,0,1,.589.811c0,.049.025.074.025.1a.51.51,0,0,1-.123.295.407.407,0,0,1-.295.123.352.352,0,0,1-.27-.123.849.849,0,0,1-.172-.295.486.486,0,0,0-.172-.246.919.919,0,0,0-.614-.2,1.217,1.217,0,0,0-.663.172.531.531,0,0,0-.295.467.721.721,0,0,0,.1.393,1.106,1.106,0,0,0,.221.246,2.59,2.59,0,0,0,.319.2l.442.221c.2.1.368.172.467.221a2.316,2.316,0,0,1,.418.27,1.87,1.87,0,0,1,.393.344,1.491,1.491,0,0,1,.246.442,1.441,1.441,0,0,1,.1.565,1.583,1.583,0,0,1-.418,1.105,1.9,1.9,0,0,1-1.081.54,1.4,1.4,0,0,1-.319.025,1.778,1.778,0,0,1-1.154-.393A1.261,1.261,0,0,1,86,42.717Z" transform="translate(-86 -38.1)" fill="#007aff"/>
            </g>
            <g id="Group_11" data-name="Group 11" transform="translate(26.108 0.025)">
              <path id="Path_14" data-name="Path 14" d="M106.3,38.618a.419.419,0,0,1,.418-.418.433.433,0,0,1,.368.221l1.081,2.039,1.081-2.039a.287.287,0,0,1,.147-.147.4.4,0,0,1,.221-.074.51.51,0,0,1,.295.123.407.407,0,0,1,.123.295.463.463,0,0,1-.049.2l-1.4,2.628v2.284a.51.51,0,0,1-.123.295.407.407,0,0,1-.295.123.51.51,0,0,1-.295-.123.407.407,0,0,1-.123-.295V41.442l-1.4-2.628A.578.578,0,0,1,106.3,38.618Z" transform="translate(-106.3 -38.2)" fill="#007aff"/>
            </g>
          </g>
          <g id="Group_16" data-name="Group 16" transform="translate(1.375 16.656)">
            <g id="Group_13" data-name="Group 13" transform="translate(26.206)">
              <path id="Path_15" data-name="Path 15" d="M112.742,71.386a.44.44,0,0,1-.442-.442v-2.7a.442.442,0,0,1,.884,0v2.726A.436.436,0,0,1,112.742,71.386Z" transform="translate(-112.3 -67.8)" fill="#007aff"/>
            </g>
            <g id="Group_14" data-name="Group 14">
              <path id="Path_16" data-name="Path 16" d="M6.042,71.386a.44.44,0,0,1-.442-.442v-2.7a.442.442,0,1,1,.884,0v2.726A.472.472,0,0,1,6.042,71.386Z" transform="translate(-5.6 -67.8)" fill="#007aff"/>
            </g>
            <g id="Group_15" data-name="Group 15" transform="translate(0 2.775)">
              <path id="Path_17" data-name="Path 17" d="M32.248,79.984H6.042a.442.442,0,0,1,0-.884H32.248a.442.442,0,0,1,0,.884Z" transform="translate(-5.6 -79.1)" fill="#007aff"/>
            </g>
          </g>
          <g id="Group_27" data-name="Group 27" transform="translate(0.192)">
            <g id="Group_21" data-name="Group 21" transform="translate(19.628 0.103)">
              <g id="Group_17" data-name="Group 17" transform="translate(0 0.025)">
                <path id="Path_18" data-name="Path 18" d="M81.142,3.988a.44.44,0,0,1-.442-.442V.942a.442.442,0,0,1,.884,0v2.6A.44.44,0,0,1,81.142,3.988Z" transform="translate(-80.7 -0.5)" fill="#007aff"/>
              </g>
              <g id="Group_18" data-name="Group 18" transform="translate(4.789 5.33)">
                <path id="Path_19" data-name="Path 19" d="M100.2,22.1" transform="translate(-100.2 -22.1)" fill="#007aff" stroke="#000" stroke-linecap="round" stroke-linejoin="round" stroke-miterlimit="10" stroke-width="15"/>
              </g>
              <g id="Group_19" data-name="Group 19">
                <path id="Path_20" data-name="Path 20" d="M85.489,1.284H81.142a.442.442,0,1,1,0-.884h4.347a.442.442,0,1,1,0,.884Z" transform="translate(-80.7 -0.4)" fill="#007aff"/>
              </g>
              <g id="Group_20" data-name="Group 20" transform="translate(4.347 0.025)">
                <path id="Path_21" data-name="Path 21" d="M98.842,6.247a.44.44,0,0,1-.442-.442V.942a.442.442,0,1,1,.884,0V5.805A.44.44,0,0,1,98.842,6.247Z" transform="translate(-98.4 -0.5)" fill="#007aff"/>
              </g>
            </g>
            <g id="Group_26" data-name="Group 26">
              <g id="Group_22" data-name="Group 22">
                <path id="Path_22" data-name="Path 22" d="M1.229,8.263a.421.421,0,0,1-.393-.246.427.427,0,0,1,.2-.589L15.253.036a.427.427,0,0,1,.589.2.427.427,0,0,1-.2.589L1.425,8.214A.463.463,0,0,1,1.229,8.263Z" transform="translate(-0.782 0.018)" fill="#007aff"/>
              </g>
              <g id="Group_23" data-name="Group 23" transform="translate(23.982 4.997)">
                <path id="Path_23" data-name="Path 23" d="M103.43,23.611a.463.463,0,0,1-.2-.049c-.761-.393-1.547-.81-2.284-1.2-.761-.393-1.523-.811-2.284-1.2a.439.439,0,1,1,.393-.786c.761.393,1.547.811,2.284,1.2.761.393,1.547.81,2.284,1.2a.448.448,0,0,1,.2.589A.438.438,0,0,1,103.43,23.611Z" transform="translate(-98.426 -20.326)" fill="#007aff"/>
              </g>
              <g id="Group_24" data-name="Group 24" transform="translate(14.33 0.011)">
                <path id="Path_24" data-name="Path 24" d="M64.867,3.655a.463.463,0,0,1-.2-.049L59.365.855a.448.448,0,0,1-.2-.589.448.448,0,0,1,.589-.2L65.039,2.82a.448.448,0,0,1,.2.589A.43.43,0,0,1,64.867,3.655Z" transform="translate(-59.126 -0.026)" fill="#007aff"/>
              </g>
              <g id="Group_25" data-name="Group 25" transform="translate(29.011 7.839)">
                <path id="Path_25" data-name="Path 25" d="M118.9,31.9" transform="translate(-118.9 -31.9)" fill="#007aff" stroke="#000" stroke-linecap="round" stroke-linejoin="round" stroke-miterlimit="10" stroke-width="15"/>
              </g>
            </g>
          </g>
        </g>
      </g>
    </g>
  </g>
</svg>
