<svg xmlns="http://www.w3.org/2000/svg" width="240" height="120" viewBox="0 0 240 120">
  <g id="work-theowner" transform="translate(-989 -189)">
    <rect id="Rectangle_4" data-name="Rectangle 4" width="240" height="120" transform="translate(989 189)" fill="#021043"/>
    <path id="シェイプ_2" data-name="シェイプ 2" d="M14.135,26.6H12.43V21.628h1.705v1.5h6v1.995h-6ZM12.43,18.936h2.828V17.714H12.43V15.719h7.706v1.995H16.963v1.222h3.173v1.995H12.43Zm0-8.547h1.641v2.638h1.317V10.646h1.576v2.381H18.5V10.389h1.641v4.633H12.43Zm16,14.284q-1.974-1.931-1.974-6.176t1.974-6.176a7.683,7.683,0,0,1,5.605-1.931,7.681,7.681,0,0,1,5.605,1.931q1.974,1.931,1.974,6.176t-1.974,6.176A7.684,7.684,0,0,1,34.031,26.6,7.682,7.682,0,0,1,28.425,24.673Zm6.618-2.012a1.61,1.61,0,0,0,.337-1.127V15.459a1.61,1.61,0,0,0-.337-1.127,1.6,1.6,0,0,0-2.024,0,1.608,1.608,0,0,0-.337,1.127v6.075a1.6,1.6,0,0,0,.337,1.137,1.341,1.341,0,0,0,1.012.352A1.319,1.319,0,0,0,35.043,22.661ZM59.376,10.389h6.579v3.418h-.822L62.069,26.6H55.922l-1.87-9h-.206l-1.973,9H45.726l-3.268-12.8h-.822V10.389h7.606v3.418H48.46l.8,5.315h.206l1.953-8.733h5.92l1.809,8.733h.206l.8-5.315h-.782Zm19.525,0h6.743v3.418H84.616V26.6H78.84l-6.023-9.4v5.981H73.8V26.6H67.061V23.186h1.028V13.807H67.061V10.389h7.421l5.407,8.358v-4.94H78.9V10.389ZM86.75,26.6V23.186h1.028V13.807H86.75V10.389h13.876v6.294h-4.6V13.807H93.534V17.1h1.809v2.376H93.534v3.71h2.488V19.893h4.6V26.6Zm14.983-3.418h1.028V13.807h-1.028V10.389h9.435a6.412,6.412,0,0,1,4.05,1.1,4.3,4.3,0,0,1,1.4,3.585,4.991,4.991,0,0,1-.555,2.418,2.982,2.982,0,0,1-1.583,1.417l.02.209a2.185,2.185,0,0,1,1.974,2.459v1.6h.966V26.6h-6.517v-4.9a2.544,2.544,0,0,0-.236-1.23,1.191,1.191,0,0,0-.74-.563,5.452,5.452,0,0,0-1.429-.146v3.418h1.357V26.6h-8.14Zm7.894-5.961a1.159,1.159,0,0,0,.894-.323,1.459,1.459,0,0,0,.3-1.011v-.75a1.46,1.46,0,0,0-.3-1.011,1.156,1.156,0,0,0-.894-.323h-1.111v3.418ZM24.221,26.6H22.479V10.389h1.742Zm38,1.813v.4h-.511v2.168h.511v.4h-.912V28.417Zm3.8,1.077v.065c0,1.119-.524,1.726-1.778,1.807v-.409c1.025-.094,1.335-.575,1.335-1.324v-.14H64.411v.866h-.436v-.866h-.511v-.405h.511v-.607h.436v.607h1.167v-.607h.394v-.094h.265v.5h-.217v.205h.517v.406h-.517Zm.339-.61v-.5h.272v.5H66.36Zm3.825.493v1.992h-.449V29.377h-.149a2.753,2.753,0,0,1-1.668,1.9v-.451a2.323,2.323,0,0,0,1.2-1.454H67.945v-.415h1.791v-.513h.449v.513h.569v.415h-.569Zm.878.594v-.428h2.79v.428h-2.79Zm5.069-.389a1.678,1.678,0,0,1-1.639,1.775v-.432a1.265,1.265,0,0,0,1.17-1.343H74.219v-.419h1.448v-.694h.469v.694h1v.419h-1Zm1.36.389v-.428h2.79v.428Zm4.18,1.418v-.4h.511V28.819h-.511v-.4h.912v2.972Z" transform="translate(1043.57 228.611)" fill="#fff" fill-rule="evenodd"/>
  </g>
</svg>
